<svg id="Layer_1" height="512" viewBox="0 0 512 512" width="512" xmlns="http://www.w3.org/2000/svg" xmlns:xlink="http://www.w3.org/1999/xlink" data-name="Layer 1"><linearGradient id="linear-gradient" gradientUnits="userSpaceOnUse" x1="312.678" x2="312.678" y1="465.094" y2="90.749"><stop offset=".322" stop-color="#a163f5"/><stop offset=".466" stop-color="#b074ee"/><stop offset=".752" stop-color="#d8a1dd"/><stop offset=".898" stop-color="#efbad3"/></linearGradient><linearGradient id="linear-gradient-2" x1="205.54" x2="205.54" xlink:href="#linear-gradient" y1="465.094" y2="90.749"/><linearGradient id="linear-gradient-3" x1="222.935" x2="222.935" xlink:href="#linear-gradient" y1="465.094" y2="90.749"/><linearGradient id="linear-gradient-4" x1="247.201" x2="247.201" xlink:href="#linear-gradient" y1="465.094" y2="90.749"/><linearGradient id="linear-gradient-5" x1="386.592" x2="386.592" xlink:href="#linear-gradient" y1="465.094" y2="90.749"/><linearGradient id="linear-gradient-6" x1="369.197" x2="369.197" xlink:href="#linear-gradient" y1="465.094" y2="90.749"/><linearGradient id="linear-gradient-7" x1="344.93" x2="344.93" xlink:href="#linear-gradient" y1="465.094" y2="90.749"/><linearGradient id="linear-gradient-8" x1="258.376" x2="258.376" xlink:href="#linear-gradient" y1="465.094" y2="90.749"/><linearGradient id="linear-gradient-9" x1="479.291" x2="479.291" xlink:href="#linear-gradient" y1="465.094" y2="90.749"/><linearGradient id="linear-gradient-10" x1="402.505" x2="402.505" xlink:href="#linear-gradient" y1="465.094" y2="90.749"/><linearGradient id="linear-gradient-11" x1="419.9" x2="419.9" xlink:href="#linear-gradient" y1="465.094" y2="90.749"/><linearGradient id="linear-gradient-12" x1="444.167" x2="444.167" xlink:href="#linear-gradient" y1="465.094" y2="90.749"/><linearGradient id="linear-gradient-13" x1="492.153" x2="492.153" xlink:href="#linear-gradient" y1="465.094" y2="90.749"/><linearGradient id="linear-gradient-14" x1="467.886" x2="467.886" xlink:href="#linear-gradient" y1="465.094" y2="90.749"/><linearGradient id="linear-gradient-15" x1="417.249" x2="417.249" xlink:href="#linear-gradient" y1="465.094" y2="90.749"/><linearGradient id="linear-gradient-16" x1="202.868" x2="202.868" xlink:href="#linear-gradient" y1="465.094" y2="90.749"/><linearGradient id="linear-gradient-17" x1="149.339" x2="149.339" xlink:href="#linear-gradient" y1="465.094" y2="90.749"/><linearGradient id="linear-gradient-18" x1="95.205" x2="95.205" xlink:href="#linear-gradient" y1="465.094" y2="90.749"/><path d="m270.676 90h69.524l-10.84 10.687a5.926 5.926 0 0 0 4.243 10.131 6 6 0 0 0 4.242-1.776l21.078-21.087a6.006 6.006 0 0 0 0-8.49l-21.078-21.083a6 6 0 0 0 -8.485 0 6.181 6.181 0 0 0 0 8.634l10.84 10.984h-69.524a6 6 0 0 0 0 12z" fill="url(#linear-gradient)"/><path d="m205.074 90h.931a6 6 0 0 0 0-12h-.931a6 6 0 0 0 0 12z" fill="url(#linear-gradient-2)"/><path d="m222.63 90h.609a6 6 0 1 0 0-12h-.609a6 6 0 0 0 0 12z" fill="url(#linear-gradient-3)"/><path d="m247.059 90h.285a6 6 0 0 0 0-12h-.285a6 6 0 1 0 0 12z" fill="url(#linear-gradient-4)"/><path d="m387.057 422h-.93a6 6 0 1 0 0 12h.93a6 6 0 0 0 0-12z" fill="url(#linear-gradient-5)"/><path d="m369.5 422h-.61a6 6 0 0 0 0 12h.61a6 6 0 0 0 0-12z" fill="url(#linear-gradient-6)"/><path d="m345.073 422h-.285a6 6 0 0 0 0 12h.285a6 6 0 0 0 0-12z" fill="url(#linear-gradient-7)"/><path d="m321.456 422h-111.675l10.835-10.687a5.911 5.911 0 0 0 0-8.411 6 6 0 0 0 -8.485.037l-21.078 21.1a6.011 6.011 0 0 0 0 8.494l21.078 21.083a6 6 0 0 0 8.485 0 6.181 6.181 0 0 0 0-8.634l-10.835-10.982h111.675a6 6 0 0 0 0-12z" fill="url(#linear-gradient-8)"/><path d="m479.165 173.247a6 6 0 0 0 -8.485 0 6.262 6.262 0 0 0 0 8.7l10.835 11.053h-18.932a6 6 0 0 0 0 12h18.932l-10.835 10.619a5.893 5.893 0 0 0 4.242 10.081 6.008 6.008 0 0 0 4.243-1.785l21.078-21.091a6.008 6.008 0 0 0 0-8.492z" fill="url(#linear-gradient-9)"/><path d="m402.04 205h.93a6 6 0 0 0 0-12h-.93a6 6 0 1 0 0 12z" fill="url(#linear-gradient-10)"/><path d="m419.6 205h.61a6 6 0 0 0 0-12h-.61a6 6 0 0 0 0 12z" fill="url(#linear-gradient-11)"/><path d="m444.024 205h.285a6 6 0 0 0 0-12h-.285a6 6 0 0 0 0 12z" fill="url(#linear-gradient-12)"/><path d="m492.458 307h-.609a6 6 0 1 0 0 12h.609a6 6 0 1 0 0-12z" fill="url(#linear-gradient-13)"/><path d="m468.029 307h-.285a6 6 0 0 0 0 12h.285a6 6 0 0 0 0-12z" fill="url(#linear-gradient-14)"/><path d="m449.471 307h-49.958l10.835-10.619a5.87 5.87 0 0 0 0-8.377 6 6 0 0 0 -8.485.054l-21.078 21.1a6.023 6.023 0 0 0 0 8.506l21.078 21.082a6 6 0 0 0 8.485 0 6.264 6.264 0 0 0 0-8.7l-10.835-11.046h49.958a6 6 0 0 0 0-12z" fill="url(#linear-gradient-15)"/><path d="m388.909 272.509a23.347 23.347 0 1 0 -39.044-22.509h-252.24a60.816 60.816 0 0 1 1.493-10h127.268c13.051 0 23.669-10.949 23.669-24a11.969 11.969 0 0 1 11.668-12h26.563a23.031 23.031 0 0 0 6.026 10.7 23.288 23.288 0 1 0 0-33.029 27.962 27.962 0 0 0 -6.026 10.329h-26.563c-13.051 0-23.668 10.949-23.668 24a11.97 11.97 0 0 1 -11.669 12h-123.466a97.248 97.248 0 0 1 6.276-12h71.171a28.352 28.352 0 0 0 26.49-18.428l11.492-31a16.285 16.285 0 0 1 15.237-10.572h2.905a22.144 22.144 0 0 0 6.491 12.477 23.355 23.355 0 1 0 0-33.016 24.788 24.788 0 0 0 -5.437 8.539h-3.959a28.338 28.338 0 0 0 -26.49 18.412l-11.492 31a16.292 16.292 0 0 1 -15.237 10.588h-61.15a71.759 71.759 0 0 1 49.083-19.808c2.181 0 4.381.1 6.538.3a6 6 0 0 0 6.547-5.968l.029-57.9a6 6 0 0 0 -5.718-5.995 144.952 144.952 0 0 0 -29.67 1.655l-15.167-15.814a6 6 0 0 0 -6.735-1.344l-41.4 18.113a6 6 0 0 0 -3.579 5.937l1.609 21.888a130.062 130.062 0 0 0 -26.454 27.769l-21.86-.643a6.045 6.045 0 0 0 -5.773 3.837l-16.267 42.141a6 6 0 0 0 1.678 6.7l16.439 14.184a144.546 144.546 0 0 0 .99 38.3l-15.807 15.164a6 6 0 0 0 -1.344 6.736l18.116 41.4a5.993 5.993 0 0 0 5.936 3.579l21.889-1.609a130.065 130.065 0 0 0 27.761 26.448l-.644 21.863a6 6 0 0 0 3.837 5.774l42.141 16.265a6 6 0 0 0 6.7-1.679l14.182-16.439a145.322 145.322 0 0 0 23.467.6 6 6 0 0 0 5.667-5.914l.745-57.912a6 6 0 0 0 -6.606-6.047 70.655 70.655 0 0 1 -54.342-17.581h59.162a16.3 16.3 0 0 1 15.233 10.6l11.492 31a28.333 28.333 0 0 0 26.494 18.4h3.959a24.8 24.8 0 0 0 5.437 8.541 23.339 23.339 0 1 0 0-33.019 22.147 22.147 0 0 0 -6.491 12.478h-2.905a16.289 16.289 0 0 1 -15.237-10.58l-11.492-31a28.34 28.34 0 0 0 -26.49-18.42h-69.893a99.982 99.982 0 0 1 -6.728-12h122.64a11.97 11.97 0 0 1 11.669 12c0 13.051 10.617 24 23.668 24h26.563a27.922 27.922 0 0 0 6.026 10.316 23.535 23.535 0 1 0 -6.026-22.316h-26.563a11.969 11.969 0 0 1 -11.668-12c0-13.051-10.618-24-23.669-24h-126.84a59.739 59.739 0 0 1 -1.779-10h252.1a23.336 23.336 0 0 0 39.044 10.509zm-86.109-82.148a11.347 11.347 0 1 1 0 16.047 11.312 11.312 0 0 1 0-16.047zm-51.33-46.442a11.347 11.347 0 1 1 -3.323 8.023 11.314 11.314 0 0 1 3.32-8.023zm0 208.116a11.347 11.347 0 1 1 -3.323 8.023 11.313 11.313 0 0 1 3.32-8.023zm51.33-46.443a11.347 11.347 0 1 1 0 16.047 11.313 11.313 0 0 1 0-16.047zm-134.5 32.358q.888 0 1.777-.019l-.589 45.736a133.274 133.274 0 0 1 -18.895-1.1 5.989 5.989 0 0 0 -5.317 2.031l-13.5 15.653-34.242-13.21.615-20.892a6 6 0 0 0 -2.67-5.169 118.228 118.228 0 0 1 -29.555-28.147 6.01 6.01 0 0 0 -5.264-2.417l-20.9 1.537-14.737-33.675 15.091-14.472a6 6 0 0 0 1.749-5.41 132.642 132.642 0 0 1 -1.063-41.027 6 6 0 0 0 -2.03-5.316l-15.651-13.507 13.214-34.236 20.892.614a6.04 6.04 0 0 0 5.169-2.669 118.178 118.178 0 0 1 28.148-29.555 6.006 6.006 0 0 0 2.416-5.264l-1.537-20.9 33.679-14.736 14.472 15.091a6 6 0 0 0 5.411 1.749 132.933 132.933 0 0 1 24.431-2.168l-.023 45.736a82.874 82.874 0 1 0 -1.091 165.742zm196.078-89.973a11.347 11.347 0 1 1 0 16.046 11.313 11.313 0 0 1 -.002-16.046z" fill="url(#linear-gradient-16)"/><path d="m146.554 154.891a6.045 6.045 0 0 0 1.2-.12c1.734-.352 3.5-.662 5.253-.924a6 6 0 1 0 -1.771-11.868c-1.955.292-3.928.638-5.864 1.031a6 6 0 0 0 1.185 11.881z" fill="url(#linear-gradient-17)"/><path d="m127.964 160.915a6 6 0 0 0 -4.7-11.042 115.463 115.463 0 0 0 -64.154 69.253 6 6 0 1 0 11.37 3.836 103.453 103.453 0 0 1 57.484-62.047z" fill="url(#linear-gradient-18)"/></svg>